/* XPM */
static char *_59799c6035a4529ed99438ad793c620[] = {
/* columns rows colors chars-per-pixel */
"64 64 176 2 ",
"   c None",
".  c #010101",
"X  c #090909",
"o  c gray8",
"O  c #351612",
"+  c #3E1D13",
"@  c #272727",
"#  c gray22",
"$  c #4F1A15",
"%  c #51350F",
"&  c #492514",
"*  c #532C15",
"=  c #552C18",
"-  c #5F3416",
";  c #693B18",
":  c #7F4C1E",
">  c #7F5836",
",  c gray40",
"<  c #814D1E",
"1  c #995C1C",
"2  c #A0611D",
"3  c #AC681E",
"4  c #866637",
"5  c #9D6731",
"6  c #B46E24",
"7  c #B56E25",
"8  c #BB7220",
"9  c #BB7320",
"0  c #B87327",
"q  c #BC792B",
"w  c #CE8623",
"e  c #D08121",
"r  c #D38A27",
"t  c #D78D27",
"y  c #D78E27",
"u  c #D2892B",
"i  c #D68E28",
"p  c #D78E28",
"a  c #C48431",
"s  c #C68733",
"d  c #C68734",
"f  c #CC8F37",
"g  c #CC903A",
"h  c #CE953D",
"j  c #CF953D",
"k  c #D99230",
"l  c #D1973D",
"z  c #D1973E",
"x  c #D59C3F",
"c  c #C48946",
"v  c #C89347",
"b  c #CA9549",
"n  c #CC9749",
"m  c #CD984A",
"M  c #D29A40",
"N  c #D39B41",
"B  c #D39C42",
"V  c #D49E52",
"C  c #D7A345",
"Z  c #D8A141",
"A  c #D9A447",
"S  c #DCA645",
"D  c #DEA24E",
"F  c #DDAA4C",
"G  c #DDAB4C",
"H  c #E1AE4A",
"J  c #E2AF4B",
"K  c #E0AF4E",
"L  c #E0AF4F",
"P  c #E3B04B",
"I  c #E1B150",
"U  c #E2B251",
"Y  c #E4B553",
"T  c #E4B653",
"R  c #E5B754",
"E  c #E5B854",
"W  c #E8B45E",
"Q  c #E9BD58",
"!  c #E9BE59",
"~  c #EABE59",
"^  c #EABF5A",
"/  c #F1C657",
"(  c #F3C759",
")  c #F3C859",
"_  c #F3CC5E",
"`  c #F0CB60",
"'  c #F2CB62",
"]  c #F2CC62",
"[  c #F3CD63",
"{  c #F2CF62",
"}  c #F4CF64",
"|  c #F2D064",
" . c #F5D167",
".. c #F5D268",
"X. c #F5D369",
"o. c #F5D36A",
"O. c #F2D468",
"+. c #F2D56A",
"@. c #F5D46B",
"#. c #F0D46F",
"$. c #F5D46C",
"%. c #F5D56C",
"&. c #F4D56D",
"*. c #F4D56E",
"=. c #F2D86F",
"-. c #F3D770",
";. c #F4D770",
":. c #F4D771",
">. c #F1D970",
",. c #F1DB73",
"<. c #F4D871",
"1. c #F4D872",
"2. c #F4D873",
"3. c #F4D973",
"4. c #F3DB76",
"5. c #F4DA75",
"6. c #F4DA76",
"7. c #F4DB77",
"8. c #F1DC74",
"9. c #F1DC75",
"0. c #F1DD76",
"q. c #F1DE77",
"w. c #F4DB78",
"e. c #F4DC78",
"r. c #F4DD79",
"t. c #F4DD7A",
"y. c #F4DE7B",
"u. c #F3DE7D",
"i. c #F3DF7D",
"p. c #F3DF7E",
"a. c #F4DE7C",
"s. c #F3E07F",
"d. c #B5B5B6",
"f. c #B6B6B7",
"g. c #B7B7B9",
"h. c #F5DE81",
"j. c #F5DE83",
"k. c #F6DE83",
"l. c #F7D488",
"z. c #F8DF8B",
"x. c #FADF91",
"c. c #FBDF94",
"v. c #FDDF98",
"b. c #FCDD9C",
"n. c #F3E080",
"m. c #F3E180",
"M. c #F3E181",
"N. c #F3E282",
"B. c #F3E283",
"V. c #F3E383",
"C. c #F3E384",
"Z. c #F4E386",
"A. c #F4E387",
"S. c #F4E388",
"D. c #F5E389",
"F. c #F5E38B",
"G. c #F5E38E",
"H. c #F6E38E",
"J. c #F7E38F",
"K. c #F6E291",
"L. c #F8E393",
"P. c #F8E394",
"I. c #F9E497",
"U. c #FAE498",
"Y. c #FAE49A",
"T. c #FBE49C",
"R. c #FCE4A0",
"E. c #FCE4A1",
"W. c #FEE4A5",
"Q. c #FEE4A6",
"!. c #FFE4A8",
"~. c #C8C8C8",
"^. c gray84",
"/. c #DADADA",
"(. c #DBDBDC",
"). c #F4F4F4",
/* pixels */
"                                                                                                                                ",
"                                                                                                                                ",
"                                                                                                                                ",
"                                                                                                                                ",
"                                                                                                                                ",
"                                                                                                                                ",
"                                                                                                                                ",
"                                                                                                                                ",
"                                                                                                                                ",
"                                                                                                                                ",
"                                                                                                                                ",
"                                                                                                                                ",
"                                                                                                                                ",
"                                                                                                                                ",
"                                                                                                                                ",
"                                                                                                                                ",
"                              b                                                                 v                               ",
"                              Z.    A                                                     A     Z.                              ",
"                              6.  h F.                                                    D.g   6.                              ",
"                                  B.$.                                                    &.B.                                  ",
"                                                                                                                                ",
"                        t.  Z.                                                                    Z.  t.                        ",
"                              n. .                                                            ..m.    ^                         ",
"                            !.                                                                    b.                            ",
"                    Y.r.                        . ~.d.                  % k                               Y.                    ",
"                    N.  B.                        @ g.                  c /.                          V.  N.                    ",
"                    *.    M.4.      t               r                     y               X , q.  7.      *.                    ",
"                                . ).f.              u         D ^.        w               # (./                                 ",
"                L.  m.s.i.  Q.                      W         o           4                       W.  a.s.M.  P.                ",
"                  N.  a.  B.                        z.>                   _                             a.  N.                  ",
"                  5.;.7.$.w.        9               u.x.        q.      H Z               3         7.@.7.;.5.                  ",
"                      :.G                           q.j.v.    j.-.    q   0             ; 2           F <.                      ",
"                      o.    W.        e             9.q.z.#.  k.  q.                  O -         W.    o.                      ",
"                    X.'   C.A.          8         | >.0.u.  c.    h.                V 6 *         Z.C.  ] %.                    ",
"                C.M.  ~   t.              1 G.K.S ) O.,.  l.        0.            l a   &               !   N.C.                ",
"                  7.o.  Q ]                   7 f P     5             8.=.    $ J x     +           '     o.e.                  ",
"                    Y M       L                                         >.+.{ (                 K       N T                     ",
"                        s E  .:.                                                                :. .R d                         ",
"                      a.    p.N.                                                                N.p.  = i.                      ",
"                    I.    < S.L.                                                                L.A.:     U.                    ",
"                    Z.  2.    n S.C.                                                        C.D.m     3.  A.                    ",
"                        [ C       y.                                                        y.      A }                         ",
"                            V.p   `   T.                                                T.  '   i C.                            ",
"                                p z     N.                                            N.      t                                 ",
"                            1.M.J.      w.o.                                        @.e.      H.M.<.                            ",
"                              N.      p   I                                       j U   p       N.                              ",
"                                          t                                                                                     ",
"                                  B } a.C.E.                                        R.C.a.[ M                                   ",
"                                                                                                                                ",
"                                                                                                                                ",
"                                                                                                                                ",
"                                                                                                                                ",
"                                                                                                                                ",
"                                                                                                                                ",
"                                                                                                                                ",
"                                                                                                                                ",
"                                                                                                                                ",
"                                                                                                                                ",
"                                                                                                                                ",
"                                                                                                                                ",
"                                                                                                                                ",
"                                                                                                                                ",
"                                                                                                                                ",
"                                                                                                                                "
};
