/* XPM */
static char *c419c42fccd54820e9dd33c90acd8073[] = {
/* columns rows colors chars-per-pixel */
"32 32 56 1 ",
"  c None",
". c black",
"X c gray9",
"o c #2F1311",
"O c #582E19",
"+ c #734219",
"@ c #8B521A",
"# c #BD7B2E",
"$ c #836C64",
"% c #C4832E",
"& c #D48823",
"* c #D78D27",
"= c #D78E28",
"- c #D0963D",
"; c #D1983F",
": c #CC9242",
"> c #D69F44",
", c #D6A045",
"< c #D9A343",
"1 c #D7A24E",
"2 c #D8A34F",
"3 c #DEAA48",
"4 c #EAC15A",
"5 c #EEC45D",
"6 c #EEC65E",
"7 c #F0C760",
"8 c #F0C960",
"9 c #F5D065",
"0 c #F5D166",
"q c #F5D167",
"w c #F2D56B",
"e c #F4D56D",
"r c #F4D771",
"t c #F4D872",
"y c #F1DD75",
"u c #F3DF7D",
"i c #F4DE7C",
"p c #848484",
"a c #F4DE81",
"s c #F9DF8E",
"d c #FFDF9C",
"f c #F3E181",
"g c #F3E282",
"h c #F3E283",
"j c #F3E383",
"k c #F3E384",
"l c #F3E287",
"z c #F4E386",
"x c #F4E388",
"c c #F5E389",
"v c #F5E38A",
"b c #F7E391",
"n c #F7E392",
"m c #FCE49E",
"M c #FCE49F",
"N c gray80",
/* pixels */
"                                ",
"                                ",
"                                ",
"                                ",
"                                ",
"                                ",
"                                ",
"                                ",
"        v8            7x        ",
"       q                q       ",
"      k                  k      ",
"       x                c       ",
"       >    $     p     , j     ",
"      z X&      *     .N l      ",
"             d    %             ",
"      0  -   a        @  9      ",
"             yss     #+         ",
"    f e    o3w:  y  <    e f    ",
"     ; 4                  ;     ",
"      O 2              1        ",
"      5 g              g 6      ",
"                     h          ",
"       uM*0          q=mi       ",
"         tn          br         ",
"                                ",
"                                ",
"                                ",
"                                ",
"                                ",
"                                ",
"                                ",
"                                "
};
